# xmcd
#
# Track frame offsets:
#	150
#	19740
#	34847
#	52180
#	68275
#	92438
#	109995
#	133971
#	163661
#	177779
#	195427
#	207845
#	224556
#	259245
#
# Disc length: 3711 seconds
#
# Revision: 1
# Processed by: cddbd v1.5.2PL0 Copyright (c) Steve Scherf et al.
# Submitted via: audiograbber 1.81.02
#
DISCID=c90e7d0e
DTITLE=Eric Clapton - Unplugged
DYEAR=1992
DGENRE=Blues
TTITLE0=Signe
TTITLE1=Before you accuse me
TTITLE2=Hey hey
TTITLE3=Tears in heaven
TTITLE4=Lonely stranger
TTITLE5=Nobody knows when you're down and out
TTITLE6=Layla
TTITLE7=Running on faith
TTITLE8=Walkin' blues
TTITLE9=Alberta
TTITLE10=San francisco bay blues
TTITLE11=Malted milk
TTITLE12=Old love
TTITLE13=Rollin' and tumblin'
EXTD=
EXTT0=
EXTT1=
EXTT2=
EXTT3=
EXTT4=
EXTT5=
EXTT6=
EXTT7=
EXTT8=
EXTT9=
EXTT10=
EXTT11=
EXTT12=
EXTT13=
PLAYORDER=
